<?xml version="1.0" encoding="UTF-8" standalone="no"?>
<!-- Created with Keyshape -->
<svg xmlns="http://www.w3.org/2000/svg" xmlns:xlink="http://www.w3.org/1999/xlink" viewBox="0 0 406 328">
    <style>
@keyframes a0_t { 0% { transform: translate(0px,219.52px); animation-timing-function: cubic-bezier(0.42,0,0.58,1); } 20% { transform: translate(0px,204.52px); animation-timing-function: cubic-bezier(0.42,0,0.58,1); } 46.6666% { transform: translate(0px,227.52px); animation-timing-function: cubic-bezier(0.42,0,0.58,1); } 73.3333% { transform: translate(0px,196.52px); animation-timing-function: cubic-bezier(0.42,0,0.58,1); } 100% { transform: translate(0px,219.52px); } }
@keyframes a0_h { 0% { height: 109px; animation-timing-function: cubic-bezier(0.42,0,0.58,1); } 20% { height: 124px; animation-timing-function: cubic-bezier(0.42,0,0.58,1); } 46.6667% { height: 101px; animation-timing-function: cubic-bezier(0.42,0,0.58,1); } 73.3333% { height: 132px; animation-timing-function: cubic-bezier(0.42,0,0.58,1); } 100% { height: 109px; } }
@keyframes a1_t { 0% { transform: translate(203px,130.52px); animation-timing-function: cubic-bezier(0.42,0,0.58,1); } 20% { transform: translate(203px,147.52px); animation-timing-function: cubic-bezier(0.42,0,0.58,1); } 46.6666% { transform: translate(203px,126.52px); animation-timing-function: cubic-bezier(0.42,0,0.58,1); } 73.3333% { transform: translate(203px,136.52px); animation-timing-function: cubic-bezier(0.42,0,0.58,1); } 100% { transform: translate(203px,130.52px); } }
@keyframes a1_h { 0% { height: 198px; animation-timing-function: cubic-bezier(0.42,0,0.58,1); } 20% { height: 181px; animation-timing-function: cubic-bezier(0.42,0,0.58,1); } 46.6667% { height: 202px; animation-timing-function: cubic-bezier(0.42,0,0.58,1); } 73.3333% { height: 192px; animation-timing-function: cubic-bezier(0.42,0,0.58,1); } 100% { height: 198px; } }
    </style>
    <title>Artboard 3</title>
    <rect width="203" height="109" fill="#3a87d9" transform="translate(0,0) translate(0,219.52)" style="animation: a0_t 3s linear infinite both, a0_h 3s linear infinite both;"/>
    <rect width="203" height="198" fill="#3a67d9" transform="translate(0,0) translate(203,130.52)" style="animation: a1_t 3s linear infinite both, a1_h 3s linear infinite both;"/>
    <path d="M270.55,26.35L262.49,26.35L238.3,57.6L214.1,26.35L205.9,26.35L234.12,62.78L204.31,101.52L212.52,101.52L238.3,68L264.07,101.55L272.57,101.55L242.33,62.78ZM291.55,94.9L328.7,57.9C335.033,51.66,339.367,46.1867,341.7,41.48C342.267,40.332,342.768,39.1523,343.199,37.9468C343.631,36.7412,343.993,35.5118,344.283,34.2646C344.573,33.0174,344.791,31.7545,344.936,30.4823C345.081,29.21,345.152,27.9305,345.15,26.65C345.15,18.49,342.223,12.01,336.37,7.21C330.517,2.41,322.64,0.00666667,312.74,0C311.029,-0.0282717,309.318,0.0264307,307.612,0.163915C305.907,0.301398,304.209,0.521502,302.525,0.823449C300.841,1.1254,299.172,1.50883,297.525,1.97241C295.878,2.43598,294.254,2.97915,292.66,3.6C291.259,4.14579,289.891,4.77428,288.565,5.48214C287.238,6.19,285.954,6.97598,284.721,7.83595C283.487,8.69592,282.306,9.62836,281.183,10.6283C280.06,11.6283,278.997,12.6941,278,13.82L283.18,18.43C284.015,17.4694,284.906,16.5589,285.849,15.7033C286.791,14.8477,287.783,14.0484,288.82,13.3097C289.856,12.571,290.935,11.8941,292.052,11.2825C293.168,10.671,294.319,10.1259,295.5,9.65C296.823,9.14646,298.169,8.7068,299.534,8.33254C300.899,7.95828,302.281,7.64985,303.676,7.40832C305.071,7.16679,306.476,6.99243,307.888,6.88586C309.299,6.77929,310.715,6.74063,312.13,6.77C320.383,6.77,326.693,8.59333,331.06,12.24C335.427,15.8867,337.613,20.9267,337.62,27.36C337.613,28.4257,337.544,29.4902,337.414,30.5479C337.284,31.6056,337.092,32.6549,336.839,33.6903C336.587,34.7258,336.275,35.7457,335.904,36.7448C335.533,37.7439,335.104,38.7207,334.62,39.67C332.66,43.67,328.893,48.4467,323.32,54L280.78,96.34L280.78,101.52L350,101.52L350,94.9Z" fill="#10adb4"/>
</svg>
