<?xml version="1.0" encoding="UTF-8" standalone="no"?>
<!-- Created with Keyshape -->
<svg xmlns="http://www.w3.org/2000/svg" xmlns:xlink="http://www.w3.org/1999/xlink" viewBox="0 0 235 132">
    <style>
@keyframes Oval-Copy-3_da { 0% { stroke-dasharray: 0px 402px; } 50% { stroke-dasharray: 402px 0px; } 100% { stroke-dasharray: 0px 402px; } }
@keyframes Oval-Copy-3_do { 0% { stroke-dashoffset: 0px; } 50% { stroke-dashoffset: 0px; } 100% { stroke-dashoffset: -402px; } }
@keyframes Oval-Copy-4_da { 0% { stroke-dasharray: 0px 402px; } 50% { stroke-dasharray: 402px 0px; } 100% { stroke-dasharray: 0px 402px; } }
@keyframes Oval-Copy-4_do { 0% { stroke-dashoffset: 0px; } 50% { stroke-dashoffset: 0px; } 100% { stroke-dashoffset: -402px; } }
    </style>
    <title>Group</title>
    <desc>Created with Sketch.</desc>
    <ellipse id="Oval" fill="#3A67D9" rx="64" ry="64" stroke="none" stroke-width="1" fill-rule="evenodd" transform="translate(0,2) translate(64,64)"/>
    <path id="$-copy-2" d="M240,79.5957C240,82.6887,239.195,85.5133,237.586,88.0697C235.976,90.6261,233.531,92.7248,230.249,94.366C226.966,96.0071,222.895,96.9223,218.036,97.1117L218.036,108L214.533,108L214.533,97.1117C209.925,96.9223,205.586,96.0071,201.515,94.366C197.444,92.7248,194.272,90.6419,192,88.117L194.178,84.5191C196.387,86.7915,199.321,88.7009,202.982,90.2473C206.643,91.7938,210.493,92.6617,214.533,92.8511L214.533,65.3936C210.177,64.3206,206.58,63.1844,203.74,61.9851C200.899,60.7858,198.533,59.0185,196.639,56.683C194.746,54.3475,193.799,51.2862,193.799,47.4989C193.799,42.7649,195.55,38.7568,199.053,35.4745C202.556,32.1922,207.716,30.3617,214.533,29.983L214.533,19L218.036,19L218.036,29.8883C221.633,30.0145,225.12,30.5984,228.497,31.6399C231.874,32.6814,234.793,34.0858,237.254,35.8532L235.456,39.7351C232.868,37.9677,230.059,36.6264,227.03,35.7112C224,34.7959,221.002,34.2752,218.036,34.1489L218.036,61.6064C222.832,62.8057,226.682,63.9734,229.586,65.1096C232.489,66.2458,234.951,67.9658,236.97,70.2697C238.99,72.5736,240,75.6822,240,79.5957ZM198.627,47.4043C198.627,51.2546,199.984,54.1108,202.698,55.9729C205.412,57.8349,209.357,59.4287,214.533,60.7543L214.533,34.2436C209.294,34.6223,205.333,36.0268,202.651,38.4569C199.968,40.8871,198.627,43.8695,198.627,47.4043ZM218.036,92.8511C223.716,92.5986,227.992,91.2731,230.864,88.8745C233.736,86.4759,235.172,83.4777,235.172,79.8798C235.172,77.1025,234.414,74.8459,232.899,73.1101C231.385,71.3743,229.46,70.033,227.124,69.0862C224.789,68.1394,221.759,67.1926,218.036,66.2457L218.036,92.8511Z" fill="#3A67D9" stroke="none" stroke-width="1" fill-rule="evenodd" transform="translate(-45,2)"/>
    <path id="Oval-Copy-2" d="M218,128C253.346,128,282,99.3462,282,64C282,28.6538,253.346,0,218,0C182.654,0,154,28.6538,154,64C154,99.3462,182.654,128,218,128Z" stroke="#3A67D9" stroke-width="4" stroke-dasharray="none" fill="none" fill-rule="evenodd" stroke-miterlimit="1" stroke-dashoffset="0" stroke-linecap="round" stroke-linejoin="round" opacity="0.3" stroke-opacity="1" fill-opacity="1" transform="translate(169,66) rotate(360) translate(-218,-64)"/>
    <path id="Oval-Copy-3" d="M218,128C253.346,128,282,99.3462,282,64C282,28.6538,253.346,0,218,0C182.654,0,154,28.6538,154,64C154,99.3462,182.654,128,218,128Z" stroke="#3A67D9" stroke-width="4" stroke-dasharray="0 402" fill="none" fill-rule="evenodd" stroke-miterlimit="1" stroke-dashoffset="0" stroke-linecap="round" stroke-linejoin="round" opacity="0.3" stroke-opacity="1" fill-opacity="1" transform="translate(169,66) rotate(180) translate(-218,-64)" style="animation: Oval-Copy-3_da 3s linear infinite both, Oval-Copy-3_do 3s linear infinite both;"/>
    <path id="Oval-Copy-4" d="M218,128C253.346,128,282,99.3462,282,64C282,28.6538,253.346,0,218,0C182.654,0,154,28.6538,154,64C154,99.3462,182.654,128,218,128Z" stroke="#3A67D9" stroke-width="4" stroke-dasharray="0 402" fill="none" fill-rule="evenodd" stroke-miterlimit="1" stroke-dashoffset="0" stroke-linecap="round" stroke-linejoin="round" opacity="0.3" stroke-opacity="1" fill-opacity="1" transform="translate(169,66) translate(-218,-64)" style="animation: Oval-Copy-4_da 3s linear infinite both, Oval-Copy-4_do 3s linear infinite both;"/>
    <path id="$" d="M86,79.5957C86,82.6887,85.1953,85.5133,83.5858,88.0697C81.9763,90.6261,79.5306,92.7248,76.2485,94.366C72.9665,96.0071,68.8955,96.9223,64.0355,97.1117L64.0355,108L60.5325,108L60.5325,97.1117C55.925,96.9223,51.5858,96.0071,47.5148,94.366C43.4438,92.7248,40.2722,90.6419,38,88.117L40.1775,84.5191C42.3866,86.7915,45.3215,88.7009,48.9822,90.2473C52.643,91.7938,56.4931,92.6617,60.5325,92.8511L60.5325,65.3936C56.1775,64.3206,52.5799,63.1844,49.7396,61.9851C46.8994,60.7858,44.5326,59.0185,42.6391,56.683C40.7456,54.3475,39.7988,51.2862,39.7988,47.4989C39.7988,42.7649,41.5503,38.7568,45.0533,35.4745C48.5562,32.1922,53.7159,30.3617,60.5325,29.983L60.5325,19L64.0355,19L64.0355,29.8883C67.6332,30.0145,71.1203,30.5984,74.497,31.6399C77.8738,32.6814,80.7929,34.0858,83.2544,35.8532L81.4556,39.7351C78.8678,37.9677,76.0592,36.6264,73.0296,35.7112C70,34.7959,67.002,34.2752,64.0355,34.1489L64.0355,61.6064C68.8324,62.8057,72.6824,63.9734,75.5858,65.1096C78.4892,66.2458,80.9507,67.9658,82.9704,70.2697C84.9901,72.5736,86,75.6822,86,79.5957ZM44.6272,47.4043C44.6272,51.2546,45.9842,54.1108,48.6982,55.9729C51.4122,57.8349,55.357,59.4287,60.5325,60.7543L60.5325,34.2436C55.2939,34.6223,51.3333,36.0268,48.6509,38.4569C45.9684,40.8871,44.6272,43.8695,44.6272,47.4043ZM64.0355,92.8511C69.716,92.5986,73.9921,91.2731,76.8639,88.8745C79.7357,86.4759,81.1716,83.4777,81.1716,79.8798C81.1716,77.1025,80.4142,74.8459,78.8994,73.1101C77.3846,71.3743,75.4596,70.033,73.1243,69.0862C70.7889,68.1394,67.7594,67.1926,64.0355,66.2457L64.0355,92.8511Z" fill="#10ADB4" stroke="none" stroke-width="1" fill-rule="evenodd" transform="translate(0,2)"/>
</svg>
