<?xml version="1.0" encoding="UTF-8" standalone="no"?>
<!-- Created with Keyshape -->
<svg xmlns="http://www.w3.org/2000/svg" xmlns:xlink="http://www.w3.org/1999/xlink" viewBox="0 0 117 156">
    <style>
@keyframes a0_o { 0% { opacity: 1; } 47.2222% { opacity: 1; } 55.5556% { opacity: 0; } 63.8889% { opacity: 1; } 100% { opacity: 1; } }
@keyframes a1_o { 0% { opacity: 1; } 38.8889% { opacity: 1; } 47.2222% { opacity: 0; } 55.5556% { opacity: 1; } 100% { opacity: 1; } }
@keyframes a2_o { 0% { opacity: 1; } 36.1111% { opacity: 1; } 44.4444% { opacity: 0; } 52.7778% { opacity: 1; } 100% { opacity: 1; } }
@keyframes a3_o { 0% { opacity: 1; } 30.5556% { opacity: 1; } 38.8889% { opacity: 0; } 47.2222% { opacity: 1; } 100% { opacity: 1; } }
@keyframes a4_o { 0% { opacity: 1; } 33.3333% { opacity: 1; } 41.6667% { opacity: 0; } 50% { opacity: 1; } 100% { opacity: 1; } }
@keyframes a5_o { 0% { opacity: 1; } 31.9444% { opacity: 1; } 40.2778% { opacity: 0; } 48.6111% { opacity: 1; } 100% { opacity: 1; } }
@keyframes a6_o { 0% { opacity: 1; } 23.6111% { opacity: 1; } 31.9444% { opacity: 0; } 40.2778% { opacity: 1; } 100% { opacity: 1; } }
@keyframes a7_o { 0% { opacity: 1; } 16.6667% { opacity: 1; } 25% { opacity: 0; } 33.3333% { opacity: 1; } 100% { opacity: 1; } }
    </style>
    <title>Artboard 2</title>
    <ellipse fill="#3a67d9" rx="58.5" ry="58.5" fill-opacity="1" transform="translate(58.5,97.5)"/>
    <path d="M58,0C53.1554,-5.11362e-05,48.3579,0.951319,43.8799,2.8001C39.4019,4.64889,35.3305,7.3591,31.897,10.7769C28.4634,14.1947,25.7345,18.2535,23.8651,22.7229C21.9957,27.1924,21.0223,31.9854,21,36.83L21,60.19C21.0623,61.6957,21.7044,63.1191,22.7918,64.1625C23.8793,65.2058,25.328,65.7884,26.835,65.7884C28.342,65.7884,29.7907,65.2058,30.8782,64.1625C31.9656,63.1191,32.6077,61.6957,32.67,60.19L32.67,36.83C32.67,30.1121,35.3387,23.6693,40.089,18.919C44.8393,14.1687,51.2821,11.5,58,11.5C64.7179,11.5,71.1607,14.1687,75.911,18.919C80.6613,23.6693,83.33,30.1121,83.33,36.83L83.33,60.19C83.3923,61.6957,84.0344,63.1191,85.1218,64.1625C86.2093,65.2058,87.658,65.7884,89.165,65.7884C90.672,65.7884,92.1207,65.2058,93.2082,64.1625C94.2956,63.1191,94.9377,61.6957,95,60.19L95,36.83C94.9777,31.9854,94.0043,27.1924,92.1349,22.7229C90.2655,18.2535,87.5366,14.1947,84.103,10.7769C80.6695,7.3591,76.5981,4.64889,72.1201,2.8001C67.6421,0.951319,62.8446,-5.11362e-05,58,0Z" fill="#3a67d9" opacity="0.6"/>
    <g transform="translate(61.0595,103.093) translate(-24.9405,-28.9182)">
        <path d="M56.72,93.6C56.7315,96.6494,56.6589,99.6985,56.5024,102.744C56.3459,105.789,56.1055,108.83,55.7815,111.862C55.4575,114.894,55.05,117.917,54.5594,120.927C54.0689,123.936,53.4956,126.932,52.84,129.91C52.8364,129.942,52.8338,129.973,52.832,130.005C52.8302,130.037,52.8293,130.068,52.8293,130.1C52.8293,130.132,52.8302,130.163,52.832,130.195C52.8338,130.227,52.8364,130.258,52.84,130.29C52.835,130.483,52.8626,130.676,52.9215,130.86C52.9805,131.043,53.07,131.216,53.1863,131.37C53.3026,131.525,53.4441,131.658,53.6048,131.765C53.7654,131.872,53.943,131.952,54.13,132C54.1615,132.004,54.1932,132.006,54.2248,132.008C54.2565,132.01,54.2883,132.011,54.32,132.011C54.3517,132.011,54.3835,132.01,54.4152,132.008C54.4468,132.006,54.4785,132.004,54.51,132C54.7024,131.999,54.8933,131.967,55.0748,131.903C55.2563,131.839,55.4258,131.745,55.5763,131.625C55.7268,131.506,55.8561,131.361,55.9589,131.199C56.0616,131.036,56.1364,130.857,56.18,130.67C56.852,127.63,57.4401,124.572,57.9439,121.499C58.4477,118.427,58.8668,115.341,59.2008,112.245C59.5348,109.15,59.7836,106.045,59.9469,102.936C60.1102,99.8268,60.1879,96.7136,60.18,93.6C60.18,93.1465,59.9998,92.7115,59.6792,92.3908C59.3585,92.0702,58.9235,91.89,58.47,91.89C58.0165,91.89,57.5815,92.0702,57.2608,92.3908C56.9402,92.7115,56.76,93.1465,56.76,93.6Z" fill="#10adb4" fill-rule="nonzero" fill-opacity="1" opacity="1" transform="translate(-36.119,-74.1746)" style="animation: a0_o 3s linear infinite both;"/>
        <path d="M67.73,99.3C67.511,99.2996,67.2939,99.3409,67.0903,99.4215C66.8866,99.5021,66.7002,99.6207,66.5407,99.7709C66.3813,99.921,66.2519,100.1,66.1593,100.299C66.0667,100.497,66.0127,100.711,66,100.93C65.904,103.343,65.7602,105.753,65.5685,108.161C65.3769,110.568,65.1375,112.971,64.8505,115.368C64.5635,117.766,64.229,120.158,63.8472,122.542C63.4653,124.926,63.0362,127.303,62.56,129.67C62.5575,129.697,62.5557,129.725,62.5544,129.752C62.5532,129.78,62.5526,129.807,62.5526,129.835C62.5526,129.863,62.5532,129.89,62.5544,129.918C62.5557,129.945,62.5575,129.973,62.56,130C62.5605,130.196,62.5944,130.39,62.6603,130.575C62.7262,130.759,62.8232,130.931,62.947,131.083C63.0708,131.235,63.2197,131.364,63.3871,131.466C63.5546,131.568,63.7382,131.64,63.93,131.68L64.27,131.68C64.4659,131.68,64.6603,131.646,64.8448,131.58C65.0293,131.514,65.2012,131.417,65.353,131.293C65.5048,131.169,65.6344,131.02,65.7361,130.853C65.8378,130.685,65.9101,130.502,65.95,130.31C66.4324,127.899,66.8674,125.478,67.2549,123.05C67.6424,120.621,67.9822,118.185,68.2742,115.744C68.5662,113.302,68.8103,110.855,69.0063,108.403C69.2023,105.952,69.3502,103.497,69.45,101.04L69.45,101C69.45,100.775,69.4054,100.552,69.3187,100.345C69.232,100.137,69.105,99.9489,68.945,99.7908C68.785,99.6327,68.5953,99.5079,68.3867,99.4236C68.1781,99.3394,67.9549,99.2974,67.73,99.3Z" fill="#10adb4" fill-rule="nonzero" fill-opacity="1" opacity="1" transform="translate(-36.119,-74.1746)" style="animation: a1_o 3s linear infinite both;"/>
        <path d="M45.69,116.33C45.18,120,44.51,123.8,43.69,127.62C43.6875,127.65,43.6857,127.68,43.6844,127.71C43.6832,127.74,43.6826,127.77,43.6826,127.8C43.6826,127.83,43.6832,127.86,43.6844,127.89C43.6857,127.92,43.6875,127.95,43.69,127.98C43.6892,128.171,43.7204,128.361,43.7825,128.542C43.8445,128.723,43.9365,128.892,44.0545,129.043C44.1726,129.193,44.315,129.323,44.476,129.426C44.6369,129.53,44.814,129.605,45,129.65L45.36,129.65C45.5539,129.65,45.7464,129.617,45.9292,129.552C46.1121,129.487,46.2825,129.392,46.4333,129.27C46.5842,129.148,46.7131,129.001,46.8148,128.836C46.9164,128.671,46.9892,128.49,47.03,128.3C47.85,124.4,48.54,120.52,49.03,116.78C49.0312,116.76,49.0322,116.74,49.0328,116.72C49.0334,116.7,49.0337,116.68,49.0337,116.66C49.0337,116.64,49.0334,116.62,49.0328,116.6C49.0322,116.58,49.0312,116.56,49.03,116.54C49.0478,116.096,48.8919,115.662,48.5953,115.331C48.2988,115,47.8849,114.797,47.4414,114.766C46.998,114.735,46.5598,114.877,46.2197,115.164C45.8797,115.45,45.6646,115.858,45.62,116.3Z" fill="#10adb4" fill-rule="nonzero" fill-opacity="1" opacity="1" transform="translate(-36.119,-74.1746)" style="animation: a2_o 3s linear infinite both;"/>
        <path d="M58.4,82.44C56.9409,82.44,55.4961,82.7269,54.1477,83.2843C52.7992,83.8418,51.5736,84.6589,50.5405,85.6893C49.5074,86.7196,48.6869,87.9431,48.1258,89.2899C47.5647,90.6368,47.2739,92.0809,47.27,93.54C47.2705,94.9374,47.2531,96.3348,47.2179,97.7318C47.1827,99.1288,47.1296,100.525,47.0588,101.921C46.9879,103.316,46.8992,104.711,46.7927,106.105C46.6863,107.498,46.562,108.89,46.42,110.28C46.42,110.28,46.42,110.39,46.42,110.45C46.4207,110.663,46.4613,110.873,46.5397,111.071C46.6181,111.269,46.7329,111.45,46.8782,111.605C47.0234,111.761,47.1965,111.887,47.3885,111.979C47.5804,112.07,47.7879,112.125,48,112.14L48.18,112.14C48.3894,112.14,48.5969,112.101,48.7924,112.026C48.9878,111.951,49.1678,111.841,49.3234,111.701C49.479,111.561,49.6076,111.394,49.7027,111.207C49.7979,111.021,49.858,110.818,49.88,110.61C50.023,109.191,50.1482,107.771,50.2555,106.349C50.3629,104.928,50.4525,103.505,50.5242,102.081C50.5959,100.657,50.6497,99.232,50.6857,97.8067C50.7217,96.3814,50.7398,94.9558,50.74,93.53C50.8119,91.5345,51.6552,89.6448,53.0923,88.2585C54.5294,86.8723,56.4482,86.0976,58.445,86.0976C60.4418,86.0976,62.3606,86.8723,63.7977,88.2585C65.2348,89.6448,66.0781,91.5345,66.15,93.53C66.15,93.9835,66.3302,94.4185,66.6508,94.7392C66.9715,95.0598,67.4065,95.24,67.86,95.24C68.3135,95.24,68.7485,95.0598,69.0692,94.7392C69.3898,94.4185,69.57,93.9835,69.57,93.53C69.5661,92.068,69.2739,90.6211,68.7102,89.2722C68.1464,87.9233,67.3223,86.6987,66.2848,85.6687C65.2473,84.6386,64.0168,83.8232,62.6639,83.2692C61.3109,82.7152,59.862,82.4334,58.4,82.44Z" fill="#10adb4" fill-rule="nonzero" fill-opacity="1" opacity="1" transform="translate(-36.119,-74.1746)" style="animation: a3_o 3s linear infinite both;"/>
        <path d="M72.8,128.9C72.8249,128.902,72.8499,128.904,72.8749,128.905C72.8999,128.907,72.925,128.907,72.95,128.907C72.975,128.907,73.0001,128.907,73.0251,128.905C73.0501,128.904,73.0751,128.902,73.1,128.9C73.2998,128.901,73.4981,128.867,73.686,128.799C73.874,128.731,74.0486,128.631,74.202,128.503C74.3554,128.375,74.4852,128.221,74.5854,128.048C74.6857,127.876,74.755,127.687,74.79,127.49C75.286,124.685,75.721,121.87,76.0945,119.047C76.468,116.224,76.7801,113.392,77.0304,110.555C77.2807,107.718,77.4693,104.876,77.5959,102.031C77.7226,99.1857,77.7873,96.338,77.79,93.49C77.7782,89.2976,76.4065,85.2223,73.881,81.876C71.3555,78.5297,67.8125,76.0931,63.7841,74.9321C59.7556,73.7711,55.4593,73.9485,51.5403,75.4375C47.6212,76.9266,44.2911,79.6469,42.05,83.19C42.0065,83.2574,41.9679,83.3278,41.9344,83.4007C41.9009,83.4736,41.8726,83.5488,41.8498,83.6257C41.827,83.7026,41.8097,83.781,41.798,83.8603C41.7863,83.9397,41.7803,84.0198,41.78,84.1C41.7805,84.4695,41.9006,84.8289,42.1225,85.1244C42.3443,85.4199,42.6559,85.6356,43.0106,85.7392C43.3653,85.8428,43.744,85.8287,44.09,85.6991C44.436,85.5694,44.7307,85.3312,44.93,85.02C46.8015,82.1435,49.5483,79.9449,52.7648,78.7489C55.9813,77.5528,59.4972,77.4226,62.7934,78.3775C66.0896,79.3324,68.9915,81.3218,71.0706,84.052C73.1497,86.7822,74.2959,90.1086,74.34,93.54C74.3398,96.3359,74.2787,99.1315,74.1567,101.925C74.0347,104.718,73.8518,107.508,73.6082,110.294C73.3645,113.079,73.0602,115.859,72.6953,118.631C72.3305,121.403,71.9053,124.166,71.42,126.92C71.3811,127.141,71.3858,127.367,71.4341,127.585C71.4823,127.804,71.573,128.011,71.7011,128.195C71.8292,128.379,71.9921,128.536,72.1806,128.657C72.3691,128.777,72.5796,128.86,72.8,128.9Z" fill="#10adb4" fill-rule="nonzero" fill-opacity="1" opacity="1" transform="translate(-36.119,-74.1746)" style="animation: a4_o 3s linear infinite both;"/>
        <path d="M40.74,91.83C40.5133,91.8274,40.2883,91.8696,40.078,91.9542C39.8676,92.0388,39.6761,92.1642,39.5144,92.3231C39.3527,92.4821,39.224,92.6714,39.1357,92.8802C39.0474,93.089,39.0013,93.3133,39,93.54C38.9987,96.0437,38.9378,98.547,38.8173,101.048C38.6967,103.549,38.5166,106.046,38.2771,108.538C38.0375,111.031,37.7386,113.517,37.3806,115.995C37.0226,118.473,36.6056,120.942,36.13,123.4C36.1263,123.427,36.1236,123.455,36.1217,123.482C36.1199,123.51,36.119,123.537,36.119,123.565C36.119,123.593,36.1199,123.62,36.1217,123.648C36.1236,123.675,36.1263,123.703,36.13,123.73C36.1311,123.927,36.1662,124.122,36.2336,124.306C36.301,124.491,36.3998,124.663,36.5257,124.814C36.6515,124.965,36.8025,125.094,36.9719,125.193C37.1414,125.293,37.3268,125.363,37.52,125.4C37.5474,125.402,37.5749,125.404,37.6024,125.406C37.6299,125.407,37.6575,125.407,37.685,125.407C37.7125,125.407,37.7401,125.407,37.7676,125.406C37.7951,125.404,37.8226,125.402,37.85,125.4C38.0465,125.401,38.2416,125.368,38.4266,125.302C38.6117,125.236,38.7838,125.138,38.9352,125.013C39.0866,124.888,39.2151,124.737,39.3148,124.568C39.4145,124.398,39.484,124.213,39.52,124.02C40.0077,121.509,40.4353,118.986,40.8023,116.454C41.1693,113.922,41.4756,111.382,41.721,108.835C41.9663,106.289,42.1507,103.737,42.274,101.182C42.3972,98.6262,42.4592,96.0683,42.46,93.51C42.4548,93.2875,42.4065,93.0681,42.3178,92.8641C42.229,92.66,42.1015,92.4751,41.9423,92.3196C41.7831,92.1641,41.5952,92.0409,41.3891,91.957C41.183,91.8731,40.9625,91.8299,40.74,91.83Z" fill="#10adb4" fill-rule="nonzero" fill-opacity="1" opacity="1" transform="translate(-36.119,-74.1746)" style="animation: a5_o 3s linear infinite both;"/>
        <path d="M84.29,91.83C84.0658,91.8313,83.844,91.8764,83.6372,91.9628C83.4303,92.0492,83.2423,92.1752,83.0837,92.3337C82.9252,92.4923,82.7992,92.6803,82.7128,92.8872C82.6264,93.094,82.5813,93.3158,82.58,93.54C82.5784,95.797,82.5387,98.0538,82.4612,100.309C82.3836,102.565,82.268,104.819,82.1146,107.071C81.9611,109.323,81.7698,111.572,81.5406,113.817C81.3115,116.062,81.0446,118.304,80.74,120.54C80.7105,120.763,80.7251,120.989,80.783,121.206C80.8408,121.423,80.9409,121.626,81.0774,121.804C81.2139,121.983,81.3842,122.132,81.5785,122.245C81.7728,122.357,81.9874,122.43,82.21,122.46L82.44,122.46C82.6436,122.461,82.8457,122.425,83.0366,122.354C83.2276,122.284,83.4043,122.18,83.5584,122.046C83.7124,121.913,83.8413,121.754,83.9389,121.575C84.0365,121.396,84.1013,121.202,84.13,121C84.4395,118.726,84.7107,116.446,84.9435,114.162C85.1764,111.879,85.3708,109.592,85.5268,107.301C85.6827,105.011,85.8002,102.719,85.8791,100.425C85.958,98.1306,85.9983,95.8354,86,93.54C85.9987,93.3158,85.9536,93.094,85.8672,92.8872C85.7808,92.6803,85.6548,92.4923,85.4963,92.3337C85.3377,92.1752,85.1497,92.0492,84.9428,91.9628C84.736,91.8764,84.5142,91.8313,84.29,91.83Z" fill="#10adb4" fill-rule="nonzero" fill-opacity="1" opacity="1" transform="translate(-36.119,-74.1746)" style="animation: a6_o 3s linear infinite both;"/>
        <path d="M83.75,88C83.928,87.9503,84.0968,87.872,84.2498,87.7683C84.4028,87.6645,84.538,87.5366,84.65,87.3896C84.7621,87.2426,84.8495,87.0784,84.909,86.9034C84.9685,86.7284,84.9992,86.5448,85,86.36C85.0003,86.3194,84.9991,86.2788,84.9964,86.2383C84.9936,86.1978,84.9893,86.1575,84.9834,86.1173C84.9776,86.0772,84.9702,86.0372,84.9613,85.9976C84.9523,85.958,84.9419,85.9188,84.93,85.88C83.9768,82.6281,82.4345,79.5788,80.38,76.884C78.3254,74.1891,75.7935,71.8944,72.9101,70.114C70.0267,68.3336,66.8409,67.0978,63.5112,66.4681C60.1815,65.8384,56.7644,65.8255,53.43,66.43C40.36,68.72,30.84,80.35,30.79,94.08C30.782,95.9478,30.7386,97.8153,30.6598,99.6814C30.5811,101.548,30.467,103.412,30.3177,105.274C30.1684,107.136,29.9839,108.995,29.7642,110.849C29.5445,112.704,29.2897,114.555,29,116.4C28.9989,116.422,28.998,116.443,28.9974,116.465C28.9968,116.487,28.9966,116.508,28.9966,116.53C28.9966,116.552,28.9968,116.573,28.9974,116.595C28.998,116.617,28.9989,116.638,29,116.66C29.001,116.862,29.0377,117.063,29.1085,117.253C29.1792,117.442,29.2828,117.618,29.4146,117.771C29.5464,117.925,29.7042,118.054,29.8808,118.153C30.0575,118.251,30.2502,118.318,30.45,118.35L30.71,118.35C30.9124,118.349,31.1129,118.312,31.3025,118.242C31.4921,118.171,31.6677,118.067,31.8213,117.935C31.9749,117.804,32.104,117.646,32.2027,117.469C32.3015,117.293,32.3682,117.1,32.4,116.9C32.6928,115.012,32.9503,113.119,33.1723,111.222C33.3944,109.325,33.5809,107.423,33.7319,105.519C33.8829,103.615,33.9982,101.708,34.0779,99.7989C34.1577,97.8902,34.2017,95.9803,34.21,94.07C34.25,82,42.59,71.8,54,69.79C56.9195,69.2588,59.9118,69.2678,62.8281,69.8165C65.7444,70.3651,68.5352,71.4442,71.0621,73C73.589,74.5559,75.809,76.5621,77.6119,78.9191C79.4148,81.2762,80.7699,83.9439,81.61,86.79C81.6677,87.012,81.7694,87.2201,81.9091,87.402C82.0489,87.5839,82.2238,87.7358,82.4235,87.8487C82.6231,87.9616,82.8435,88.0332,83.0714,88.0592C83.2992,88.0852,83.53,88.065,83.75,88Z" fill="#10adb4" fill-rule="nonzero" fill-opacity="1" opacity="1" transform="translate(-36.119,-74.1746)" style="animation: a7_o 3s linear infinite both;"/>
    </g>
</svg>
