<?xml version="1.0" encoding="UTF-8" standalone="no"?>
<!-- Created with Keyshape -->
<svg xmlns="http://www.w3.org/2000/svg" xmlns:xlink="http://www.w3.org/1999/xlink" viewBox="0 0 168 134">
    <style>
@keyframes a0_t { 0% { transform: translate(25.2588px,0px); animation-timing-function: cubic-bezier(0.42,0,0.58,1); } 50% { transform: translate(15.258822px,0px); animation-timing-function: cubic-bezier(0.42,0,0.58,1); } 100% { transform: translate(25.258822px,0px); } }
@keyframes a1_t { 0% { transform: translate(0px,0px); animation-timing-function: cubic-bezier(0.42,0,0.58,1); } 50% { transform: translate(10px,0px); animation-timing-function: cubic-bezier(0.42,0,0.58,1); } 100% { transform: translate(0px,0px); } }
    </style>
    <title>Artboard 5</title>
    <path d="M138.845,121.099C136.148,118.963,133.396,116.896,130.591,114.902C127.787,112.908,124.933,110.987,122.028,109.14C119.125,107.294,116.175,105.523,113.179,103.829C110.185,102.135,107.147,100.518,104.066,98.982C103.726,98.6398,103.377,98.2992,103.377,97.9587L103.377,86.3967C103.798,85.6903,104.189,84.9654,104.545,84.2236C104.903,83.4835,105.226,82.7265,105.515,81.956C105.805,81.1856,106.059,80.4016,106.277,79.6093C106.496,78.8152,106.68,78.0127,106.826,77.2035C108.207,77.2035,109.927,75.5415,111.648,69.0415C114.059,60.1974,111.648,58.8343,109.237,59.1751C109.578,57.8118,109.927,56.7978,110.267,55.4347C114.059,32.6347,102.687,31.9532,102.687,31.9532C102.244,31.3175,101.763,30.7083,101.248,30.1291C100.732,29.55,100.184,29.0015,99.6038,28.4868C99.0238,27.9721,98.4152,27.492,97.7779,27.0489C97.1424,26.6059,96.4798,26.2007,95.797,25.8354C94.7501,25.191,93.6508,24.6362,92.5112,24.1771C91.3715,23.7179,90.1947,23.3561,88.9927,23.0955C87.7923,22.8346,86.5717,22.6762,85.3444,22.6214C84.1154,22.5664,82.8863,22.6157,81.6657,22.7684C81.1954,22.7625,80.7267,22.7797,80.258,22.8198C79.7893,22.8599,79.3223,22.923,78.8604,23.0088C78.3984,23.0944,77.9399,23.2029,77.4881,23.3335C77.0379,23.464,76.5928,23.6166,76.1562,23.7907C75.5948,23.9406,75.0418,24.1181,74.4989,24.3223C73.9561,24.5266,73.425,24.7574,72.9041,25.014C72.3831,25.2706,71.8774,25.5527,71.3834,25.8592C70.8911,26.1657,70.4145,26.4961,69.9546,26.8495C69.3822,27.2006,68.8222,27.5714,68.2754,27.9612C67.7287,28.3509,67.1956,28.7596,66.6772,29.1863C66.1588,29.613,65.6552,30.0576,65.1676,30.5192C64.6799,30.9806,64.2083,31.4589,63.7538,31.9532C62.911,32.7547,62.1267,33.6154,61.4069,34.5288C60.687,35.4422,60.0334,36.406,59.4509,37.4127C58.8686,38.4193,58.3589,39.4665,57.926,40.5458C57.493,41.6253,57.1378,42.7343,56.8632,43.8643C55.8241,47.6047,56.1733,51.3452,56.8632,55.4347C57.2039,56.7978,57.553,57.8118,57.8938,59.1751C55.4833,58.8343,53.0727,60.1974,55.4833,69.0415C57.2039,75.1674,58.9245,77.2035,60.3043,77.2035C60.6534,80.2718,62.0249,83.3301,63.7538,86.3967L63.7538,97.9587C63.7538,98.2992,63.4047,98.6398,63.0639,98.982C59.9636,100.644,43.4226,108.848,28.2614,121.099C27.5977,121.624,26.997,122.222,26.4713,122.883C25.9457,123.546,25.4986,124.266,25.1391,125.031C24.7797,125.796,24.5103,126.601,24.3361,127.427C24.1621,128.254,24.0848,129.099,24.1053,129.944L24.1053,134L143.001,134L143.001,129.944C143.021,129.099,142.943,128.254,142.77,127.427C142.596,126.601,142.326,125.796,141.967,125.031C141.608,124.266,141.16,123.546,140.635,122.883C140.109,122.222,139.508,121.624,138.845,121.099Z" fill="#10adb4" filter="none" transform="translate(25.2588,0)" style="animation: a0_t 3s linear infinite both;"/>
    <path d="M138,118.48C134.755,115.91,131.444,113.424,128.07,111.024C124.697,108.625,121.262,106.314,117.769,104.092C114.276,101.871,110.726,99.7397,107.122,97.7017C103.519,95.6636,99.8638,93.7191,96.16,91.87C95.75,91.46,95.33,91.05,95.33,90.64L95.33,76.73C95.8374,75.8801,96.3065,75.0078,96.7358,74.1159C97.1651,73.224,97.5542,72.3132,97.9019,71.3865C98.2497,70.4597,98.5557,69.5178,98.8191,68.5636C99.0825,67.6094,99.303,66.6439,99.48,65.67C101.14,65.67,103.21,63.67,105.28,55.85C108.18,45.21,105.28,43.57,102.38,43.98C102.79,42.34,103.21,41.12,103.62,39.48C108.18,12.05,94.5,11.23,94.5,11.23C93.9662,10.4652,93.3879,9.73242,92.768,9.03556C92.1481,8.33871,91.4877,7.67897,90.7903,7.05975C90.0928,6.44054,89.3595,5.86292,88.5941,5.32991C87.8288,4.79691,87.0327,4.30942,86.21,3.87C84.9511,3.09464,83.6288,2.4272,82.2573,1.87483C80.8858,1.32245,79.47,0.887116,78.0251,0.573486C76.5802,0.259855,75.1113,0.0690519,73.6342,0.00311796C72.1571,-0.062816,70.6771,-0.00364425,69.21,0.18C68.6444,0.172941,68.0788,0.193595,67.5152,0.241887C66.9516,0.290179,66.3907,0.366051,65.8346,0.46923C65.2784,0.572409,64.7276,0.702772,64.1842,0.859849C63.6408,1.01693,63.1054,1.20053,62.58,1.41C61.9059,1.59038,61.2411,1.80383,60.5879,2.04957C59.9348,2.29531,59.2942,2.57305,58.6683,2.88176C58.0425,3.19048,57.4323,3.52981,56.8398,3.89852C56.2473,4.26723,55.6734,4.66487,55.12,5.09C54.4314,5.51235,53.7576,5.95842,53.0999,6.4274C52.4421,6.89638,51.8008,7.38799,51.1771,7.90134C50.5534,8.4147,49.9476,8.9495,49.3609,9.50477C48.7742,10.06,48.2069,10.6355,47.66,11.23C46.6461,12.1943,45.7025,13.2298,44.8364,14.3287C43.9703,15.4276,43.184,16.5871,42.4833,17.7982C41.7827,19.0093,41.1696,20.269,40.6487,21.5676C40.1278,22.8662,39.7005,24.2004,39.37,25.56C38.12,30.06,38.54,34.56,39.37,39.48C39.78,41.12,40.2,42.34,40.61,43.98C37.71,43.57,34.81,45.21,37.71,55.85C39.78,63.22,41.85,65.67,43.51,65.67C43.93,69.36,45.58,73.04,47.66,76.73L47.66,90.64C47.66,91.05,47.24,91.46,46.83,91.87C43.1,93.87,23.2,103.74,4.96,118.48C4.16152,119.11,3.43882,119.83,2.80642,120.626C2.17401,121.422,1.63617,122.289,1.2037,123.21C0.771229,124.13,0.447045,125.097,0.237657,126.092C0.0282689,127.087,-0.0649069,128.103,-0.04,129.12L-0.04,134L143,134L143,129.12C143.025,128.103,142.932,127.087,142.722,126.092C142.513,125.097,142.189,124.13,141.756,123.21C141.324,122.289,140.786,121.422,140.154,120.626C139.521,119.83,138.798,119.11,138,118.48Z" fill="#3a67d9" style="animation: a1_t 3s linear infinite both;"/>
</svg>
